<?xml version="1.0" standalone="no"?><!DOCTYPE svg PUBLIC "-//W3C//DTD SVG 1.1//EN" "http://www.w3.org/Graphics/SVG/1.1/DTD/svg11.dtd"><svg t="1755484336698" class="icon" viewBox="0 0 1024 1024" version="1.1" xmlns="http://www.w3.org/2000/svg" p-id="10936" xmlns:xlink="http://www.w3.org/1999/xlink" width="200" height="200"><path d="M928.256 399.36c0 244.224-196.096 440.32-440.32 440.32-136.704 0-259.584-62.976-339.456-160.256-62.976-76.8 578.56-669.184 658.944-583.68C882.176 174.08 928.256 281.6 928.256 399.36" fill="#AFCFF9" p-id="10937"></path><path d="M414.72 310.784C595.456 152.064 771.584 56.32 807.424 97.28c37.376 42.496-78.336 204.8-259.584 365.056-179.2 158.72-354.816 254.464-392.704 211.456-37.376-40.448 78.848-204.288 259.584-363.008" fill="#6D9FE3" p-id="10938"></path><path d="M489.984 493.056L343.04 293.376l18.944-16.896L552.96 433.664c1.536 1.536-24.064 37.376-62.976 59.392" fill="#F1F5FF" p-id="10939"></path><path d="M400.896 278.016c0 27.136-22.016 49.664-49.664 49.664s-49.152-22.016-49.152-49.664 22.016-49.664 49.664-49.664c27.136 2.048 49.152 22.528 49.152 49.664" fill="#D2DBF0" p-id="10940"></path><path d="M377.344 131.584c8.704 0 16.896 0 25.6 1.536 11.776 1.536 18.944 11.776 16.896 22.016-1.536 11.776-11.776 18.944-22.016 16.896-6.656-1.536-13.824-1.536-20.48-1.536-76.8 0-139.776 62.976-139.776 139.776 0 6.656 0 13.824 1.536 20.48v3.584c1.536 10.24-5.12 22.016-16.896 24.064-10.24 1.536-22.016-5.12-24.064-16.896-1.536-10.24-3.584-20.48-3.584-30.72 1.536-97.28 83.456-179.2 182.784-179.2z" fill="#D2DBF0" p-id="10941"></path><path d="M322.56 25.6c10.24 0 22.016 0 32.256 1.536 11.776 1.536 18.944 11.776 16.896 22.016-1.536 11.776-11.776 18.944-22.016 16.896-8.704-1.536-16.896-1.536-27.136-1.536-102.4 2.048-185.856 85.504-185.856 186.368 0 11.776 0 22.016 1.536 32.256s-5.12 22.016-16.896 24.064c-10.24 1.536-22.016-5.12-24.064-16.896-1.536-11.776-3.584-25.6-3.584-39.424C95.744 128 196.096 25.6 322.56 25.6z m236.032 44.032l28.16-25.6c6.656-6.656 6.656-18.944 0-27.136-8.704-8.704-20.48-8.704-29.184-1.536l-29.696 26.624-29.696-26.624c-8.704-6.656-20.48-6.656-27.136 1.536-8.704 8.704-6.656 20.48 1.536 29.184l25.6 23.04-25.6 23.04c-6.656 6.656-6.656 18.944 0 27.136 8.704 8.704 20.48 8.704 29.184 1.536l27.136-24.576 29.184 26.624c8.704 6.656 20.48 6.656 27.136-1.536 6.656-8.704 6.656-22.016-1.536-29.184l-25.088-22.528z" fill="#D2DBF0" p-id="10942"></path><path d="M762.88 705.024c16.896 20.48 87.04 168.96 100.864 262.656l-189.44 46.08-184.32-35.84V838.144l46.08-6.656v66.56l97.28 3.584s-10.24-213.504 90.624-216.576c-0.512-0.512 23.552-0.512 38.912 19.968z" fill="#AFCFF9" p-id="10943"></path><path d="M583.68 827.904v71.68l-46.08-1.536v-65.024l46.08-5.12zM764.416 701.44l-3.584-3.584c-11.776-3.584-25.6-3.584-35.84 3.584-20.48 13.824-49.664 56.32-52.736 150.016s3.584 160.256 3.584 160.256l185.856-46.08c-11.776-91.648-79.872-243.712-97.28-264.192" fill="#6D9FE3" p-id="10944"></path><path d="M769.536 771.584c0 15.36-11.776 25.6-25.6 25.6-15.36 0-25.6-11.776-25.6-25.6 0-15.36 11.776-25.6 25.6-25.6s25.6 11.776 25.6 25.6" fill="#F1F5FF" p-id="10945"></path><path d="M749.056 745.984c6.656 5.12 11.776 13.824 11.776 22.016 0 15.36-10.24 27.136-24.064 27.136h-3.584c3.584 1.536 8.704 3.584 11.776 3.584 13.824 0 24.064-11.776 24.064-27.136 0.512-13.824-7.68-24.064-19.968-25.6" fill="#4182C9" p-id="10946"></path></svg>