<?xml version="1.0" standalone="no"?><!DOCTYPE svg PUBLIC "-//W3C//DTD SVG 1.1//EN" "http://www.w3.org/Graphics/SVG/1.1/DTD/svg11.dtd"><svg t="1752460296028" class="icon" viewBox="0 0 1024 1024" version="1.1" xmlns="http://www.w3.org/2000/svg" p-id="5667" xmlns:xlink="http://www.w3.org/1999/xlink" width="200" height="200"><path d="M230.4 237.568q10.24-30.72 19.456-48.64t19.968-26.624 24.064-11.264 32.768-3.584l118.784 0-118.784 745.472-156.672 0q-63.488 0-80.384-44.544t7.68-126.464q8.192-26.624 19.456-67.072t24.064-87.04 25.6-96.256 25.088-94.72 22.016-81.408 16.896-57.856zM581.632 273.408l-74.752 0 6.144-124.928 61.44 0zM595.968 584.704l-103.424 0 11.264-248.832 80.896 0zM598.016 647.168l11.264 248.832-131.072 0 11.264-248.832 108.544 0zM998.4 734.208q7.168 22.528 11.264 50.176t0 51.712-18.944 40.448-44.544 16.384l-186.368 0-119.808-745.472 96.256 0q51.2 0 86.016 22.528t53.248 80.896q6.144 18.432 15.36 57.344l22.528 88.064q12.288 49.152 25.088 102.4t24.064 100.352l21.504 83.968q9.216 36.864 14.336 51.2z" p-id="5668" fill="#8a8a8a"></path></svg>