<?xml version="1.0" standalone="no"?><!DOCTYPE svg PUBLIC "-//W3C//DTD SVG 1.1//EN" "http://www.w3.org/Graphics/SVG/1.1/DTD/svg11.dtd"><svg t="1752461860187" class="icon" viewBox="0 0 1024 1024" version="1.1" xmlns="http://www.w3.org/2000/svg" p-id="11970" xmlns:xlink="http://www.w3.org/1999/xlink" width="200" height="200"><path d="M863.06 861.82l0.89-454.19h36.48c21.13 0 24.7-9.82 8.15-21.78L516.04 102.27a26.078 26.078 0 0 0-29.87 0.83L114.46 396.73c-16.19 12.73-11.9 23.45 9.05 23.86l36.6 0.77 1.55 441.16H96.19l0.78 62.84 830.84 0.66-0.72-62.55-64.03-1.65zM233.72 467.2l106.53 1.19v85.88l-106.53-0.48V467.2z m106.59 259.05l-106.47-0.36v-86.53l106.47 0.95v85.94z m112-428.78l106.53 1.13v85.88l-106.53-0.36v-86.65z m0 169.73l106.35 1.19v85.88l-106.35-0.48V467.2z m106.58 381.94l-106.59-0.6V639.3h106.59v209.84zM665.48 467.2l106.35 1.19v85.88l-106.35-0.48V467.2z m0 172.1l106.52 0.96v85.99l-106.53-0.36V639.3z m0 0" p-id="11971" fill="#8a8a8a"></path></svg>