<?xml version="1.0" standalone="no"?><!DOCTYPE svg PUBLIC "-//W3C//DTD SVG 1.1//EN" "http://www.w3.org/Graphics/SVG/1.1/DTD/svg11.dtd"><svg t="1755074811398" class="icon" viewBox="0 0 1024 1024" version="1.1" xmlns="http://www.w3.org/2000/svg" p-id="7747" xmlns:xlink="http://www.w3.org/1999/xlink" width="200" height="200"><path d="M488.825263 997.429895c-4.149895 0-6.682947-0.646737-8.08421-2.533053l-3.233685-1.724631c-185.505684-72.272842-310.649263-216.980211-365.568-422.211369-31.797895-117.921684-36.325053-262.467368-26.408421-292.594526l1.886316-21.827369c2.425263-12.395789 12.234105-21.827368 24.090948-21.827368h20.641684c28.887579 0 61.008842-21.665684 67.907368-76.638316l1.778526-14.874947a22.096842 22.096842 0 0 1 14.713264-20.48l176.505263-67.907369C449.482105 33.468632 470.123789 25.707789 475.082105 24.090947l3.772632-1.94021c6.413474-3.341474 9.377684-4.473263 13.689263-4.473263h7.545263c12.665263 0.161684 14.821053 0.970105 270.551579 99.274105l12.39579 5.551158a19.725474 19.725474 0 0 1 15.198315 20.048842l1.886316 15.521684c6.736842 55.673263 39.558737 76.638316 67.907369 76.638316h22.474105c11.856842 0 21.665684 9.377684 24.144842 22.366316l1.886316 21.773473c0-0.431158 0.646737 8.461474 0.970105 15.252211 5.766737 111.885474-8.569263 242.526316-60.577684 368.963368-62.248421 151.174737-169.391158 266.132211-330.698105 330.159158l-3.503158 0.592842c-2.856421 2.964211-5.389474 3.610947-9.485474 3.610948H488.825263z m18.647579-49.205895c149.180632-58.745263 247.915789-165.241263 304.990316-306.014316 47.427368-116.843789 60.362105-237.891368 54.864842-341.962105-0.323368-6.305684-0.970105-15.521684-0.970105-15.575579-4.257684-0.538947-10.671158-1.401263-18.809263-3.449263a126.167579 126.167579 0 0 1-39.612632-17.408c-30.234947-20.210526-50.499368-52.978526-56.050526-101.214316-182.218105-69.416421-247.053474-93.507368-253.682527-95.393684-1.670737 1.185684-3.503158 1.940211-3.880421 1.616842-1.994105 0.700632-49.044211 19.294316-84.345263 32.875789l-161.68421 60.739369c-8.138105 77.824-58.098526 118.784-114.256842 121.802105a204.692211 204.692211 0 0 0-1.293474 16.168421 824.589474 824.589474 0 0 0 27.162947 258.048c50.391579 190.949053 162.223158 322.506105 331.88379 389.443369l15.683368 0.323368zM500.143158 261.389474l60.038737 127.946105 137.054316 21.288421L597.692632 509.466947l24.414315 139.587369-122.017684-65.913263-122.017684 65.859368 24.414316-139.533474L302.996211 410.677895l137.000421-21.288421L500.143158 261.389474z" fill="#B7E0E9" p-id="7748"></path></svg>