<?xml version="1.0" standalone="no"?><!DOCTYPE svg PUBLIC "-//W3C//DTD SVG 1.1//EN" "http://www.w3.org/Graphics/SVG/1.1/DTD/svg11.dtd"><svg t="1755153454628" class="icon" viewBox="0 0 1024 1024" version="1.1" xmlns="http://www.w3.org/2000/svg" p-id="3822" xmlns:xlink="http://www.w3.org/1999/xlink" width="200" height="200"><path d="M486.297508 517.324901h205.004759V1024H486.297508z" fill="#00C6F7" opacity=".2" p-id="3823"></path><path d="M640.102277 379.084929h358.604728V1024H640.102277z" fill="#00C6F7" opacity=".2" p-id="3824"></path><path d="M25.2928 333.004938h358.604728V1024H25.2928z" fill="#00C6F7" opacity=".2" p-id="3825"></path><path d="M650.342275 558.284893V983.040008h-122.879975V558.284893h122.879975m40.959992-40.959992h-204.799959V1024h204.799959V517.324901z" fill="#00A1C9" p-id="3826"></path><path d="M957.747014 420.044921V983.040008H680.652669V420.044921h277.094345m40.959991-40.959992H639.692677V1024h359.014328V379.084929zM342.937536 373.96493V983.040008H66.252792V373.96493h276.684744m40.959992-40.959992H25.2928V1024h358.604728V333.004938z" fill="#00A1C9" p-id="3827"></path><path d="M204.492764 210.124963a94.822381 94.822381 0 1 1 94.822381-94.822381 94.822381 94.822381 0 0 1-94.822381 94.822381z" fill="#00C6F7" p-id="3828"></path><path d="M204.697564 40.960197a74.342385 74.342385 0 1 1-74.342385 74.342385A74.342385 74.342385 0 0 1 204.697564 40.960197m0-40.959992a115.302377 115.302377 0 1 0 115.097577 115.302377A115.302377 115.302377 0 0 0 204.697564 0.000205z" fill="#00A1C9" p-id="3829"></path><path d="M511.897503 243.302556m-94.822381 0a94.822381 94.822381 0 1 0 189.644762 0 94.822381 94.822381 0 1 0-189.644762 0Z" fill="#00C6F7" p-id="3830"></path><path d="M511.897503 168.960171a74.342385 74.342385 0 1 1-74.137585 74.342385 74.547185 74.547185 0 0 1 74.137585-74.342385m0-40.959992a115.302377 115.302377 0 1 0 115.302377 115.302377 115.302377 115.302377 0 0 0-115.302377-115.302377z" fill="#00A1C9" p-id="3831"></path><path d="M833.433438 210.124963a94.822381 94.822381 0 1 1 94.822381-94.822381 95.027181 95.027181 0 0 1-94.822381 94.822381z" fill="#00C6F7" p-id="3832"></path><path d="M833.433438 40.960197a74.342385 74.342385 0 1 1-74.342385 74.342385A74.547185 74.547185 0 0 1 833.433438 40.960197m0-40.959992a115.302377 115.302377 0 1 0 115.302377 115.302377A115.302377 115.302377 0 0 0 833.433438 0.000205zM102.092785 460.390513h51.199989v51.199989h-51.199989zM204.697564 460.390513h51.19999v51.199989h-51.19999zM563.302292 619.724881h51.19999v51.19999h-51.19999zM718.131061 511.795302h51.19999v51.19999h-51.19999zM718.131061 702.054464h51.19999v51.19999h-51.19999zM718.131061 619.724881h51.19999v51.19999h-51.19999zM819.302241 619.724881h51.19999v51.19999h-51.19999zM819.302241 702.054464h51.19999v51.19999h-51.19999zM102.092785 568.524891h51.199989v51.19999h-51.199989zM204.697564 568.524891h51.19999v51.19999h-51.19999z" fill="#00A1C9" p-id="3833"></path></svg>