<?xml version="1.0" standalone="no"?><!DOCTYPE svg PUBLIC "-//W3C//DTD SVG 1.1//EN" "http://www.w3.org/Graphics/SVG/1.1/DTD/svg11.dtd"><svg t="1752460395824" class="icon" viewBox="0 0 1024 1024" version="1.1" xmlns="http://www.w3.org/2000/svg" p-id="7046" xmlns:xlink="http://www.w3.org/1999/xlink" width="200" height="200"><path d="M190.378889 525.041135a228.310167 228.310167 0 0 1-63.941296-43.855783V337.768997a192.763141 192.763141 0 0 1 19.363014-80.414309v-1.445001l1.011501-0.7225A159.672617 159.672617 0 0 1 194.569393 195.075143L443.904325 20.663515A119.140337 119.140337 0 0 1 511.169124 0.722501l1.083751-0.722501 0.722501 0.722501a121.380089 121.380089 0 0 1 67.264799 19.941014L829.647358 195.075143a159.817117 159.817117 0 0 1 47.974035 60.545544l1.011501 0.722501v1.445001a192.907641 192.907641 0 0 1 19.290764 80.414309V481.185352c-8.453256 9.248007-27.38277 25.865519-63.796797 43.855783V355.39801c0-36.125026-22.758767-84.315812-48.985536-102.595075l-223.975164-156.132364a88.217315 88.217315 0 0 0-48.985536-13.79976 86.700064 86.700064 0 0 0-48.985536 13.79976L239.292175 252.875185c-26.154519 18.279263-48.913286 65.964298-48.913286 102.233825zM784.780075 770.980315l-223.975164 156.421364c-26.010019 18.279263-71.744303 18.279263-97.682072 0l-223.975164-156.421364a98.476822 98.476822 0 0 1-24.854018-27.31052 663.110986 663.110986 0 0 1-86.700064-35.402526 201.722148 201.722148 0 0 0 17.701263 58.378043v1.156l1.011501 0.794751a157.360615 157.360615 0 0 0 48.768786 60.545544l249.118182 174.194878a121.307839 121.307839 0 0 0 67.048049 20.013265l1.011501 0.65025 1.011501-0.65025a120.802088 120.802088 0 0 0 67.048049-20.013265l249.118182-174.194878a157.360615 157.360615 0 0 0 47.974036-60.545544l1.0115-0.794751v-1.372751A211.186905 211.186905 0 0 0 895.900656 708.050519a678.572497 678.572497 0 0 1-86.700063 35.402526 94.864319 94.864319 0 0 1-24.709518 27.52727z" fill="#8a8a8a" p-id="7047"></path><path d="M761.949058 336.323996a107.652579 107.652579 0 0 0-32.801524-41.25478l-170.365625-119.212587a82.50956 82.50956 0 0 0-45.806533-13.72751l-0.578001-0.433501-0.65025 0.433501a80.920059 80.920059 0 0 0-45.951034 13.72751l-170.510125 119.212587a108.375079 108.375079 0 0 0-32.801524 41.25478l-0.65025 0.433501v0.93925a131.784097 131.784097 0 0 0-13.29401 55.126791v155.698864c74.056304 24.709518 165.597121 38.220278 263.712693 38.220278s189.728639-13.29401 263.568193-38.220278V392.823538a131.784097 131.784097 0 0 0-13.29401-55.126791v-0.93925zM511.458125 861.654131l0.578 0.4335 0.578-0.4335a83.448811 83.448811 0 0 0 45.951034-13.79976l98.476822-68.78205a988.163974 988.163974 0 0 1-290.445212 0l98.549072 68.78205a84.677062 84.677062 0 0 0 46.312284 13.79976z" fill="#8a8a8a" p-id="7048"></path><path d="M950.738446 352.508008l-4.262753-3.540252v101.872574a56.210541 56.210541 0 0 1 9.464757 28.466521 64.230297 64.230297 0 0 1-14.45001 36.558527c-18.351513 24.709518-53.176039 49.997037-98.693573 70.949552-86.194313 39.448529-203.600649 60.979045-330.327242 60.979044s-244.132929-21.675016-330.327242-60.979044C112.782333 555.241657 68.2763 512.975376 68.2763 479.306851a54.40429 54.40429 0 0 1 9.103507-28.03302V348.967756l-11.704509 9.970507C22.758767 395.93029 0 437.47407 0 479.234601c0 135.324349 234.451422 249.768433 512.036125 249.768433s511.963875-114.444084 511.963875-249.768433c0-44.361532-25.359769-88.072815-73.261554-126.726593z" fill="#8a8a8a" p-id="7049"></path></svg>