<?xml version="1.0" standalone="no"?><!DOCTYPE svg PUBLIC "-//W3C//DTD SVG 1.1//EN" "http://www.w3.org/Graphics/SVG/1.1/DTD/svg11.dtd"><svg t="1752460565233" class="icon" viewBox="0 0 1024 1024" version="1.1" xmlns="http://www.w3.org/2000/svg" p-id="9888" xmlns:xlink="http://www.w3.org/1999/xlink" width="200" height="200"><path d="M644.5568 456.704c49.92 0 96.3584 18.944 130.816 53.4016l34.4064 34.4064a251.1872 251.1872 0 0 0 142.9504-168.704 251.6992 251.6992 0 0 0 0-118.784c-5.2224-18.944-29.3376-25.8048-43.1104-12.032l-120.4736 120.4736h-132.5056V234.6496l120.4736-120.4736c13.7216-13.824 6.8608-37.888-12.0832-43.0592a251.7504 251.7504 0 0 0-118.784 0c-96.3584 22.3744-172.1344 104.96-187.648 203.1104a362.496 362.496 0 0 0-3.4304 43.008l144.64 144.64c15.5136-3.4304 30.976-5.12 44.8-5.12l-0.0512-0.0512z m91.2384 94.72c-41.3184-41.3184-99.84-48.2304-149.76-24.1152L398.3872 339.6608V231.2192L176.3328 64.2048 64.4608 174.3872 231.424 396.4928h108.3904l185.9584 185.9072a131.84 131.84 0 0 0 24.1152 149.76l204.8 204.8a65.4848 65.4848 0 0 0 92.9792 0l92.928-92.928a65.3824 65.3824 0 0 0 0-92.928l-204.8-199.68z m-273.7152 49.92L358.7584 498.0736l-259.8912 259.8912a117.4016 117.4016 0 0 0 0 167.0144 118.9888 118.9888 0 0 0 82.5856 34.4064c29.2864 0 60.2624-12.032 82.688-34.4576l208.2304-208.2816c-13.7728-36.1472-18.944-75.776-10.2912-115.3024z m-285.7472 287.4368a41.9328 41.9328 0 0 1-41.3184-41.3184c0-22.3744 18.944-41.3184 41.3184-41.3184 22.3744 0 41.3184 18.944 41.3184 41.3184 0 22.4256-18.944 41.3184-41.3184 41.3184z" p-id="9889" fill="#8a8a8a"></path></svg>